<svg width="869" height="161" viewBox="0 0 869 161" fill="none" xmlns="http://www.w3.org/2000/svg">
<mask id="path-1-outside-1_115_1289" maskUnits="userSpaceOnUse" x="0.609985" y="0.899902" width="869" height="160" fill="black">
<rect fill="white" x="0.609985" y="0.899902" width="869" height="160"/>
<path d="M67.19 156.52C57.81 156.52 48.99 154.7 40.73 151.06C33.59 153.72 25.89 155.05 17.63 155.05C9.50999 155.05 5.16999 154.98 4.60999 154.84C4.60999 145.18 8.45999 124.32 16.16 92.2599C23.86 60.0599 27.71 41.7899 27.71 37.4499C27.71 32.9699 26.87 28.9799 25.19 25.4799C23.65 21.9799 22.04 19.3199 20.36 17.4999L18.05 14.9799L18.68 10.1499C22.74 9.1699 30.86 8.0499 43.04 6.7899C55.36 5.5299 66 4.8999 74.96 4.8999C96.52 4.8999 112.48 9.3799 122.84 18.3399C133.34 27.1599 138.59 41.3699 138.59 60.9699C138.59 76.2299 135.79 91.0699 130.19 105.49C124.73 119.77 116.4 131.88 105.2 141.82C94 151.62 81.33 156.52 67.19 156.52ZM77.9 19.8099C75.38 19.8099 72.65 20.0199 69.71 20.4399C69.29 28.5599 65.72 47.2499 59 76.5099C52.28 105.63 48.15 125.58 46.61 136.36C49.13 137.62 52.14 138.25 55.64 138.25C63.06 138.25 69.64 134.89 75.38 128.17C81.26 121.45 85.74 113.05 88.82 102.97C94.84 82.5299 97.85 63.9799 97.85 47.3199C97.85 37.2399 96.31 30.1699 93.23 26.1099C90.29 21.9099 85.18 19.8099 77.9 19.8099Z"/>
<path d="M154.689 151.27C153.709 154.35 150.419 155.89 144.819 155.89C139.359 155.89 133.899 154 128.439 150.22C132.779 138.46 141.389 118.93 154.269 91.6299C167.289 64.1899 175.969 43.7499 180.309 30.3099C180.729 28.6299 180.939 27.2299 180.939 26.1099C180.939 24.8499 180.449 23.1699 179.469 21.0699C178.489 18.9699 177.439 17.2899 176.319 16.0299L174.849 14.1399L175.689 9.9399C188.149 6.5799 202.919 4.8999 219.999 4.8999L236.169 5.7399C237.569 6.9999 238.969 10.2899 240.369 15.6099C241.769 20.9299 242.679 28.9099 243.099 39.5499C243.519 50.1899 243.799 70.1399 243.939 99.3999C244.079 121.94 246.879 133.21 252.339 133.21C253.739 133.21 256.749 132.51 261.369 131.11L263.469 130.48L267.879 142.45C262.139 146.79 255.419 150.22 247.719 152.74C240.019 155.26 233.089 156.52 226.929 156.52C217.969 156.52 211.809 153.79 208.449 148.33C205.229 142.73 203.619 135.59 203.619 126.91C203.619 118.09 203.689 112 203.829 108.64C201.169 108.08 195.989 107.8 188.289 107.8C180.589 107.8 173.939 108.57 168.339 110.11C163.159 123.97 158.609 137.69 154.689 151.27ZM204.669 90.9999C205.369 78.8199 205.719 66.5699 205.719 54.2499C205.719 41.9299 205.019 32.9699 203.619 27.3699C202.219 27.3699 201.239 27.5099 200.679 27.7899C197.599 37.1699 189.339 58.2399 175.899 90.9999H204.669Z"/>
<path d="M271.098 155.26H267.528C267.528 146.86 271.448 125.44 279.288 90.9999C287.128 56.5599 291.048 36.6099 291.048 31.1499C291.048 28.7699 290.278 26.1099 288.738 23.1699C287.338 20.2299 285.938 17.9199 284.538 16.2399L282.438 13.5099L283.068 9.30991C291.748 6.3699 306.868 4.8999 328.428 4.8999C330.948 10.2199 332.208 16.2399 332.208 22.9599V23.3799C349.008 11.0599 363.708 4.8999 376.308 4.8999C383.728 4.8999 389.818 7.1399 394.578 11.6199C399.338 15.9599 401.718 22.2599 401.718 30.5199C401.718 38.6399 398.498 55.0899 392.058 79.8699C385.618 104.65 382.398 119.77 382.398 125.23C382.398 130.55 383.308 133.21 385.128 133.21C387.648 133.21 391.428 132.3 396.468 130.48L400.878 142.45C387.158 151.83 374.418 156.52 362.658 156.52C355.938 156.52 350.758 154.77 347.118 151.27C343.618 147.63 341.868 141.68 341.868 133.42C341.868 125.16 344.878 109.48 350.898 86.3799C357.058 63.1399 360.138 48.7199 360.138 43.1199C360.138 35.9799 356.988 32.4099 350.688 32.4099C346.068 32.4099 339.138 35.2799 329.898 41.0199C328.638 47.7399 325.978 59.3599 321.918 75.8799C312.958 113.54 308.478 138.18 308.478 149.8C302.318 153.44 289.858 155.26 271.098 155.26Z"/>
<path d="M460.404 156.52C445.284 156.52 433.034 151.06 423.654 140.14C414.273 129.22 409.583 113.89 409.583 94.1499C409.583 78.3299 412.594 63.6999 418.613 50.2599C424.773 36.6799 433.593 25.7599 445.073 17.4999C456.693 9.0999 469.154 4.8999 482.453 4.8999C495.893 4.8999 506.954 7.5599 515.634 12.8799C524.453 18.1999 528.864 25.1999 528.864 33.8799C528.864 42.4199 526.484 49.2099 521.724 54.2499C516.124 54.2499 509.684 53.1299 502.404 50.8899C495.124 48.6499 489.663 45.9199 486.023 42.6999L490.013 22.3299C487.073 20.9299 484.203 20.2299 481.404 20.2299C473.284 20.2299 466.143 27.2999 459.983 41.4399C453.823 55.4399 450.743 71.8899 450.743 90.7899C450.743 119.07 458.724 133.21 474.684 133.21C484.203 133.21 494.844 128.03 506.604 117.67L516.474 127.54C515.354 129.36 512.483 132.37 507.863 136.57C503.243 140.63 498.833 143.92 494.633 146.44C490.573 148.96 485.393 151.27 479.094 153.37C472.934 155.47 466.703 156.52 460.404 156.52Z"/>
<path d="M573.41 156.73C555.77 156.73 542.19 151.06 532.67 139.72C527.49 133.56 524.9 126.07 524.9 117.25C524.9 105.35 529.1 95.6199 537.5 88.0599C545.9 80.3599 555.84 75.8799 567.32 74.6199C549.68 69.8599 540.86 59.7099 540.86 44.1699C540.86 32.1299 546.04 22.6099 556.4 15.6099C566.76 8.4699 578.52 4.8999 591.68 4.8999C604.98 4.8999 616.04 7.6299 624.86 13.0899C633.68 18.5499 638.09 25.7599 638.09 34.7199C638.09 39.8999 636.69 44.7999 633.89 49.4199L632.42 51.7299C626.68 51.7299 620.52 50.8899 613.94 49.2099C607.36 47.3899 602.39 45.0799 599.03 42.2799L601.13 20.8599C599.03 19.8799 596.93 19.3899 594.83 19.3899C590.49 19.3899 587.13 21.6999 584.75 26.3199C582.51 30.9399 581.39 36.3299 581.39 42.4899C581.39 48.6499 582.02 53.5499 583.28 57.1899C584.68 60.8299 586.78 63.6299 589.58 65.5899C592.52 67.4099 595.04 68.7399 597.14 69.5799C599.38 70.2799 602.46 71.0499 606.38 71.8899L604.7 84.0699C595.04 84.0699 586.15 86.7999 578.03 92.2599C569.91 97.7199 565.85 105.07 565.85 114.31C565.85 120.89 567.95 125.72 572.15 128.8C576.35 131.74 581.32 133.21 587.06 133.21C592.94 133.21 599.1 131.74 605.54 128.8C611.98 125.86 617.51 122.15 622.13 117.67L631.58 127.12C625.56 135.38 617.23 142.38 606.59 148.12C595.95 153.86 584.89 156.73 573.41 156.73Z"/>
<path d="M676.713 150.01C668.453 153.65 658.373 155.47 646.473 155.47C642.413 155.47 638.773 155.12 635.553 154.42C635.553 145.18 639.473 124.39 647.313 92.0499C655.293 59.5699 659.283 39.1299 659.283 30.7299C659.283 27.3699 656.763 22.8899 651.723 17.2899L649.413 14.5599L650.043 9.9399C669.083 6.5799 690.223 4.8999 713.463 4.8999C727.463 4.8999 738.523 7.6299 746.643 13.0899C754.763 18.4099 758.823 26.2499 758.823 36.6099C758.823 46.8299 756.023 56.2099 750.423 64.7499C744.823 73.1499 736.843 79.7299 726.483 84.4899C731.103 100.17 735.513 112.42 739.713 121.24C743.913 130.06 747.343 134.47 750.003 134.47C752.243 134.47 755.743 133.63 760.503 131.95L763.023 131.11L768.063 142.45C755.743 151.83 742.723 156.52 729.003 156.52C715.423 156.52 706.533 149.66 702.333 135.94C698.693 123.9 695.753 108.99 693.513 91.2099H686.163C679.863 120.61 676.713 140.21 676.713 150.01ZM694.773 72.9399C699.253 72.9399 703.103 71.5399 706.323 68.7399C709.683 65.9399 712.203 62.2999 713.883 57.8199C716.963 48.9999 718.503 40.4599 718.503 32.1999C718.503 23.9399 714.793 19.8099 707.373 19.8099C705.133 19.8099 702.893 20.0199 700.653 20.4399C700.513 24.7799 697.083 42.1399 690.363 72.5199C691.343 72.7999 692.813 72.9399 694.773 72.9399Z"/>
<path d="M858.86 115.57C858.86 127.19 853.26 136.92 842.06 144.76C831 152.6 818.12 156.52 803.42 156.52C791.94 156.52 782.21 154.07 774.23 149.17C766.39 144.27 762.47 139.58 762.47 135.1C764.71 129.64 768.98 123.76 775.28 117.46C781.58 111.16 787.39 107.87 792.71 107.59C796.21 109.13 799.43 112.98 802.37 119.14C805.45 125.16 807.9 132.16 809.72 140.14C817.28 139.86 821.06 135.59 821.06 127.33C821.06 121.87 818.96 115.22 814.76 107.38C810.7 99.3999 806.22 91.9799 801.32 85.1199C796.42 78.2599 791.87 70.6299 787.67 62.2299C783.61 53.8299 781.58 46.4799 781.58 40.1799C781.58 29.8199 786.34 21.3499 795.86 14.7699C805.38 8.1899 815.95 4.8999 827.57 4.8999C839.33 4.8999 848.43 7.4199 854.87 12.4599C861.45 17.4999 864.74 23.3099 864.74 29.8899C864.74 35.3499 863.62 39.7599 861.38 43.1199C859.14 46.3399 857.32 48.8599 855.92 50.6799C854.66 52.3599 852.91 54.1799 850.67 56.1399C846.47 59.7799 843.25 62.4399 841.01 64.1199L837.86 66.4299C846.12 76.6499 852.35 88.5499 856.55 102.13C858.09 107.03 858.86 111.51 858.86 115.57ZM847.94 31.3599C847.94 24.7799 843.74 21.4899 835.34 21.4899C830.44 21.4899 826.45 22.5399 823.37 24.6399C820.43 26.7399 818.96 29.3999 818.96 32.6199C818.96 35.6999 820.22 39.4799 822.74 43.9599C825.4 48.4399 827.5 51.5899 829.04 53.4099C832.4 51.7299 836.39 48.6499 841.01 44.1699C845.63 39.6899 847.94 35.4199 847.94 31.3599Z"/>
</mask>
<path d="M67.19 156.52C57.81 156.52 48.99 154.7 40.73 151.06C33.59 153.72 25.89 155.05 17.63 155.05C9.50999 155.05 5.16999 154.98 4.60999 154.84C4.60999 145.18 8.45999 124.32 16.16 92.2599C23.86 60.0599 27.71 41.7899 27.71 37.4499C27.71 32.9699 26.87 28.9799 25.19 25.4799C23.65 21.9799 22.04 19.3199 20.36 17.4999L18.05 14.9799L18.68 10.1499C22.74 9.1699 30.86 8.0499 43.04 6.7899C55.36 5.5299 66 4.8999 74.96 4.8999C96.52 4.8999 112.48 9.3799 122.84 18.3399C133.34 27.1599 138.59 41.3699 138.59 60.9699C138.59 76.2299 135.79 91.0699 130.19 105.49C124.73 119.77 116.4 131.88 105.2 141.82C94 151.62 81.33 156.52 67.19 156.52ZM77.9 19.8099C75.38 19.8099 72.65 20.0199 69.71 20.4399C69.29 28.5599 65.72 47.2499 59 76.5099C52.28 105.63 48.15 125.58 46.61 136.36C49.13 137.62 52.14 138.25 55.64 138.25C63.06 138.25 69.64 134.89 75.38 128.17C81.26 121.45 85.74 113.05 88.82 102.97C94.84 82.5299 97.85 63.9799 97.85 47.3199C97.85 37.2399 96.31 30.1699 93.23 26.1099C90.29 21.9099 85.18 19.8099 77.9 19.8099Z" fill="url(#paint0_linear_115_1289)"/>
<path d="M154.689 151.27C153.709 154.35 150.419 155.89 144.819 155.89C139.359 155.89 133.899 154 128.439 150.22C132.779 138.46 141.389 118.93 154.269 91.6299C167.289 64.1899 175.969 43.7499 180.309 30.3099C180.729 28.6299 180.939 27.2299 180.939 26.1099C180.939 24.8499 180.449 23.1699 179.469 21.0699C178.489 18.9699 177.439 17.2899 176.319 16.0299L174.849 14.1399L175.689 9.9399C188.149 6.5799 202.919 4.8999 219.999 4.8999L236.169 5.7399C237.569 6.9999 238.969 10.2899 240.369 15.6099C241.769 20.9299 242.679 28.9099 243.099 39.5499C243.519 50.1899 243.799 70.1399 243.939 99.3999C244.079 121.94 246.879 133.21 252.339 133.21C253.739 133.21 256.749 132.51 261.369 131.11L263.469 130.48L267.879 142.45C262.139 146.79 255.419 150.22 247.719 152.74C240.019 155.26 233.089 156.52 226.929 156.52C217.969 156.52 211.809 153.79 208.449 148.33C205.229 142.73 203.619 135.59 203.619 126.91C203.619 118.09 203.689 112 203.829 108.64C201.169 108.08 195.989 107.8 188.289 107.8C180.589 107.8 173.939 108.57 168.339 110.11C163.159 123.97 158.609 137.69 154.689 151.27ZM204.669 90.9999C205.369 78.8199 205.719 66.5699 205.719 54.2499C205.719 41.9299 205.019 32.9699 203.619 27.3699C202.219 27.3699 201.239 27.5099 200.679 27.7899C197.599 37.1699 189.339 58.2399 175.899 90.9999H204.669Z" fill="url(#paint1_linear_115_1289)"/>
<path d="M271.098 155.26H267.528C267.528 146.86 271.448 125.44 279.288 90.9999C287.128 56.5599 291.048 36.6099 291.048 31.1499C291.048 28.7699 290.278 26.1099 288.738 23.1699C287.338 20.2299 285.938 17.9199 284.538 16.2399L282.438 13.5099L283.068 9.30991C291.748 6.3699 306.868 4.8999 328.428 4.8999C330.948 10.2199 332.208 16.2399 332.208 22.9599V23.3799C349.008 11.0599 363.708 4.8999 376.308 4.8999C383.728 4.8999 389.818 7.1399 394.578 11.6199C399.338 15.9599 401.718 22.2599 401.718 30.5199C401.718 38.6399 398.498 55.0899 392.058 79.8699C385.618 104.65 382.398 119.77 382.398 125.23C382.398 130.55 383.308 133.21 385.128 133.21C387.648 133.21 391.428 132.3 396.468 130.48L400.878 142.45C387.158 151.83 374.418 156.52 362.658 156.52C355.938 156.52 350.758 154.77 347.118 151.27C343.618 147.63 341.868 141.68 341.868 133.42C341.868 125.16 344.878 109.48 350.898 86.3799C357.058 63.1399 360.138 48.7199 360.138 43.1199C360.138 35.9799 356.988 32.4099 350.688 32.4099C346.068 32.4099 339.138 35.2799 329.898 41.0199C328.638 47.7399 325.978 59.3599 321.918 75.8799C312.958 113.54 308.478 138.18 308.478 149.8C302.318 153.44 289.858 155.26 271.098 155.26Z" fill="url(#paint2_linear_115_1289)"/>
<path d="M460.404 156.52C445.284 156.52 433.034 151.06 423.654 140.14C414.273 129.22 409.583 113.89 409.583 94.1499C409.583 78.3299 412.594 63.6999 418.613 50.2599C424.773 36.6799 433.593 25.7599 445.073 17.4999C456.693 9.0999 469.154 4.8999 482.453 4.8999C495.893 4.8999 506.954 7.5599 515.634 12.8799C524.453 18.1999 528.864 25.1999 528.864 33.8799C528.864 42.4199 526.484 49.2099 521.724 54.2499C516.124 54.2499 509.684 53.1299 502.404 50.8899C495.124 48.6499 489.663 45.9199 486.023 42.6999L490.013 22.3299C487.073 20.9299 484.203 20.2299 481.404 20.2299C473.284 20.2299 466.143 27.2999 459.983 41.4399C453.823 55.4399 450.743 71.8899 450.743 90.7899C450.743 119.07 458.724 133.21 474.684 133.21C484.203 133.21 494.844 128.03 506.604 117.67L516.474 127.54C515.354 129.36 512.483 132.37 507.863 136.57C503.243 140.63 498.833 143.92 494.633 146.44C490.573 148.96 485.393 151.27 479.094 153.37C472.934 155.47 466.703 156.52 460.404 156.52Z" fill="url(#paint3_linear_115_1289)"/>
<path d="M573.41 156.73C555.77 156.73 542.19 151.06 532.67 139.72C527.49 133.56 524.9 126.07 524.9 117.25C524.9 105.35 529.1 95.6199 537.5 88.0599C545.9 80.3599 555.84 75.8799 567.32 74.6199C549.68 69.8599 540.86 59.7099 540.86 44.1699C540.86 32.1299 546.04 22.6099 556.4 15.6099C566.76 8.4699 578.52 4.8999 591.68 4.8999C604.98 4.8999 616.04 7.6299 624.86 13.0899C633.68 18.5499 638.09 25.7599 638.09 34.7199C638.09 39.8999 636.69 44.7999 633.89 49.4199L632.42 51.7299C626.68 51.7299 620.52 50.8899 613.94 49.2099C607.36 47.3899 602.39 45.0799 599.03 42.2799L601.13 20.8599C599.03 19.8799 596.93 19.3899 594.83 19.3899C590.49 19.3899 587.13 21.6999 584.75 26.3199C582.51 30.9399 581.39 36.3299 581.39 42.4899C581.39 48.6499 582.02 53.5499 583.28 57.1899C584.68 60.8299 586.78 63.6299 589.58 65.5899C592.52 67.4099 595.04 68.7399 597.14 69.5799C599.38 70.2799 602.46 71.0499 606.38 71.8899L604.7 84.0699C595.04 84.0699 586.15 86.7999 578.03 92.2599C569.91 97.7199 565.85 105.07 565.85 114.31C565.85 120.89 567.95 125.72 572.15 128.8C576.35 131.74 581.32 133.21 587.06 133.21C592.94 133.21 599.1 131.74 605.54 128.8C611.98 125.86 617.51 122.15 622.13 117.67L631.58 127.12C625.56 135.38 617.23 142.38 606.59 148.12C595.95 153.86 584.89 156.73 573.41 156.73Z" fill="url(#paint4_linear_115_1289)"/>
<path d="M676.713 150.01C668.453 153.65 658.373 155.47 646.473 155.47C642.413 155.47 638.773 155.12 635.553 154.42C635.553 145.18 639.473 124.39 647.313 92.0499C655.293 59.5699 659.283 39.1299 659.283 30.7299C659.283 27.3699 656.763 22.8899 651.723 17.2899L649.413 14.5599L650.043 9.9399C669.083 6.5799 690.223 4.8999 713.463 4.8999C727.463 4.8999 738.523 7.6299 746.643 13.0899C754.763 18.4099 758.823 26.2499 758.823 36.6099C758.823 46.8299 756.023 56.2099 750.423 64.7499C744.823 73.1499 736.843 79.7299 726.483 84.4899C731.103 100.17 735.513 112.42 739.713 121.24C743.913 130.06 747.343 134.47 750.003 134.47C752.243 134.47 755.743 133.63 760.503 131.95L763.023 131.11L768.063 142.45C755.743 151.83 742.723 156.52 729.003 156.52C715.423 156.52 706.533 149.66 702.333 135.94C698.693 123.9 695.753 108.99 693.513 91.2099H686.163C679.863 120.61 676.713 140.21 676.713 150.01ZM694.773 72.9399C699.253 72.9399 703.103 71.5399 706.323 68.7399C709.683 65.9399 712.203 62.2999 713.883 57.8199C716.963 48.9999 718.503 40.4599 718.503 32.1999C718.503 23.9399 714.793 19.8099 707.373 19.8099C705.133 19.8099 702.893 20.0199 700.653 20.4399C700.513 24.7799 697.083 42.1399 690.363 72.5199C691.343 72.7999 692.813 72.9399 694.773 72.9399Z" fill="url(#paint5_linear_115_1289)"/>
<path d="M858.86 115.57C858.86 127.19 853.26 136.92 842.06 144.76C831 152.6 818.12 156.52 803.42 156.52C791.94 156.52 782.21 154.07 774.23 149.17C766.39 144.27 762.47 139.58 762.47 135.1C764.71 129.64 768.98 123.76 775.28 117.46C781.58 111.16 787.39 107.87 792.71 107.59C796.21 109.13 799.43 112.98 802.37 119.14C805.45 125.16 807.9 132.16 809.72 140.14C817.28 139.86 821.06 135.59 821.06 127.33C821.06 121.87 818.96 115.22 814.76 107.38C810.7 99.3999 806.22 91.9799 801.32 85.1199C796.42 78.2599 791.87 70.6299 787.67 62.2299C783.61 53.8299 781.58 46.4799 781.58 40.1799C781.58 29.8199 786.34 21.3499 795.86 14.7699C805.38 8.1899 815.95 4.8999 827.57 4.8999C839.33 4.8999 848.43 7.4199 854.87 12.4599C861.45 17.4999 864.74 23.3099 864.74 29.8899C864.74 35.3499 863.62 39.7599 861.38 43.1199C859.14 46.3399 857.32 48.8599 855.92 50.6799C854.66 52.3599 852.91 54.1799 850.67 56.1399C846.47 59.7799 843.25 62.4399 841.01 64.1199L837.86 66.4299C846.12 76.6499 852.35 88.5499 856.55 102.13C858.09 107.03 858.86 111.51 858.86 115.57ZM847.94 31.3599C847.94 24.7799 843.74 21.4899 835.34 21.4899C830.44 21.4899 826.45 22.5399 823.37 24.6399C820.43 26.7399 818.96 29.3999 818.96 32.6199C818.96 35.6999 820.22 39.4799 822.74 43.9599C825.4 48.4399 827.5 51.5899 829.04 53.4099C832.4 51.7299 836.39 48.6499 841.01 44.1699C845.63 39.6899 847.94 35.4199 847.94 31.3599Z" fill="url(#paint6_linear_115_1289)"/>
<path d="M67.19 156.52C57.81 156.52 48.99 154.7 40.73 151.06C33.59 153.72 25.89 155.05 17.63 155.05C9.50999 155.05 5.16999 154.98 4.60999 154.84C4.60999 145.18 8.45999 124.32 16.16 92.2599C23.86 60.0599 27.71 41.7899 27.71 37.4499C27.71 32.9699 26.87 28.9799 25.19 25.4799C23.65 21.9799 22.04 19.3199 20.36 17.4999L18.05 14.9799L18.68 10.1499C22.74 9.1699 30.86 8.0499 43.04 6.7899C55.36 5.5299 66 4.8999 74.96 4.8999C96.52 4.8999 112.48 9.3799 122.84 18.3399C133.34 27.1599 138.59 41.3699 138.59 60.9699C138.59 76.2299 135.79 91.0699 130.19 105.49C124.73 119.77 116.4 131.88 105.2 141.82C94 151.62 81.33 156.52 67.19 156.52ZM77.9 19.8099C75.38 19.8099 72.65 20.0199 69.71 20.4399C69.29 28.5599 65.72 47.2499 59 76.5099C52.28 105.63 48.15 125.58 46.61 136.36C49.13 137.62 52.14 138.25 55.64 138.25C63.06 138.25 69.64 134.89 75.38 128.17C81.26 121.45 85.74 113.05 88.82 102.97C94.84 82.5299 97.85 63.9799 97.85 47.3199C97.85 37.2399 96.31 30.1699 93.23 26.1099C90.29 21.9099 85.18 19.8099 77.9 19.8099Z" stroke="#F9F7FD" stroke-width="8" mask="url(#path-1-outside-1_115_1289)"/>
<path d="M154.689 151.27C153.709 154.35 150.419 155.89 144.819 155.89C139.359 155.89 133.899 154 128.439 150.22C132.779 138.46 141.389 118.93 154.269 91.6299C167.289 64.1899 175.969 43.7499 180.309 30.3099C180.729 28.6299 180.939 27.2299 180.939 26.1099C180.939 24.8499 180.449 23.1699 179.469 21.0699C178.489 18.9699 177.439 17.2899 176.319 16.0299L174.849 14.1399L175.689 9.9399C188.149 6.5799 202.919 4.8999 219.999 4.8999L236.169 5.7399C237.569 6.9999 238.969 10.2899 240.369 15.6099C241.769 20.9299 242.679 28.9099 243.099 39.5499C243.519 50.1899 243.799 70.1399 243.939 99.3999C244.079 121.94 246.879 133.21 252.339 133.21C253.739 133.21 256.749 132.51 261.369 131.11L263.469 130.48L267.879 142.45C262.139 146.79 255.419 150.22 247.719 152.74C240.019 155.26 233.089 156.52 226.929 156.52C217.969 156.52 211.809 153.79 208.449 148.33C205.229 142.73 203.619 135.59 203.619 126.91C203.619 118.09 203.689 112 203.829 108.64C201.169 108.08 195.989 107.8 188.289 107.8C180.589 107.8 173.939 108.57 168.339 110.11C163.159 123.97 158.609 137.69 154.689 151.27ZM204.669 90.9999C205.369 78.8199 205.719 66.5699 205.719 54.2499C205.719 41.9299 205.019 32.9699 203.619 27.3699C202.219 27.3699 201.239 27.5099 200.679 27.7899C197.599 37.1699 189.339 58.2399 175.899 90.9999H204.669Z" stroke="#F9F7FD" stroke-width="8" mask="url(#path-1-outside-1_115_1289)"/>
<path d="M271.098 155.26H267.528C267.528 146.86 271.448 125.44 279.288 90.9999C287.128 56.5599 291.048 36.6099 291.048 31.1499C291.048 28.7699 290.278 26.1099 288.738 23.1699C287.338 20.2299 285.938 17.9199 284.538 16.2399L282.438 13.5099L283.068 9.30991C291.748 6.3699 306.868 4.8999 328.428 4.8999C330.948 10.2199 332.208 16.2399 332.208 22.9599V23.3799C349.008 11.0599 363.708 4.8999 376.308 4.8999C383.728 4.8999 389.818 7.1399 394.578 11.6199C399.338 15.9599 401.718 22.2599 401.718 30.5199C401.718 38.6399 398.498 55.0899 392.058 79.8699C385.618 104.65 382.398 119.77 382.398 125.23C382.398 130.55 383.308 133.21 385.128 133.21C387.648 133.21 391.428 132.3 396.468 130.48L400.878 142.45C387.158 151.83 374.418 156.52 362.658 156.52C355.938 156.52 350.758 154.77 347.118 151.27C343.618 147.63 341.868 141.68 341.868 133.42C341.868 125.16 344.878 109.48 350.898 86.3799C357.058 63.1399 360.138 48.7199 360.138 43.1199C360.138 35.9799 356.988 32.4099 350.688 32.4099C346.068 32.4099 339.138 35.2799 329.898 41.0199C328.638 47.7399 325.978 59.3599 321.918 75.8799C312.958 113.54 308.478 138.18 308.478 149.8C302.318 153.44 289.858 155.26 271.098 155.26Z" stroke="#F9F7FD" stroke-width="8" mask="url(#path-1-outside-1_115_1289)"/>
<path d="M460.404 156.52C445.284 156.52 433.034 151.06 423.654 140.14C414.273 129.22 409.583 113.89 409.583 94.1499C409.583 78.3299 412.594 63.6999 418.613 50.2599C424.773 36.6799 433.593 25.7599 445.073 17.4999C456.693 9.0999 469.154 4.8999 482.453 4.8999C495.893 4.8999 506.954 7.5599 515.634 12.8799C524.453 18.1999 528.864 25.1999 528.864 33.8799C528.864 42.4199 526.484 49.2099 521.724 54.2499C516.124 54.2499 509.684 53.1299 502.404 50.8899C495.124 48.6499 489.663 45.9199 486.023 42.6999L490.013 22.3299C487.073 20.9299 484.203 20.2299 481.404 20.2299C473.284 20.2299 466.143 27.2999 459.983 41.4399C453.823 55.4399 450.743 71.8899 450.743 90.7899C450.743 119.07 458.724 133.21 474.684 133.21C484.203 133.21 494.844 128.03 506.604 117.67L516.474 127.54C515.354 129.36 512.483 132.37 507.863 136.57C503.243 140.63 498.833 143.92 494.633 146.44C490.573 148.96 485.393 151.27 479.094 153.37C472.934 155.47 466.703 156.52 460.404 156.52Z" stroke="#F9F7FD" stroke-width="8" mask="url(#path-1-outside-1_115_1289)"/>
<path d="M573.41 156.73C555.77 156.73 542.19 151.06 532.67 139.72C527.49 133.56 524.9 126.07 524.9 117.25C524.9 105.35 529.1 95.6199 537.5 88.0599C545.9 80.3599 555.84 75.8799 567.32 74.6199C549.68 69.8599 540.86 59.7099 540.86 44.1699C540.86 32.1299 546.04 22.6099 556.4 15.6099C566.76 8.4699 578.52 4.8999 591.68 4.8999C604.98 4.8999 616.04 7.6299 624.86 13.0899C633.68 18.5499 638.09 25.7599 638.09 34.7199C638.09 39.8999 636.69 44.7999 633.89 49.4199L632.42 51.7299C626.68 51.7299 620.52 50.8899 613.94 49.2099C607.36 47.3899 602.39 45.0799 599.03 42.2799L601.13 20.8599C599.03 19.8799 596.93 19.3899 594.83 19.3899C590.49 19.3899 587.13 21.6999 584.75 26.3199C582.51 30.9399 581.39 36.3299 581.39 42.4899C581.39 48.6499 582.02 53.5499 583.28 57.1899C584.68 60.8299 586.78 63.6299 589.58 65.5899C592.52 67.4099 595.04 68.7399 597.14 69.5799C599.38 70.2799 602.46 71.0499 606.38 71.8899L604.7 84.0699C595.04 84.0699 586.15 86.7999 578.03 92.2599C569.91 97.7199 565.85 105.07 565.85 114.31C565.85 120.89 567.95 125.72 572.15 128.8C576.35 131.74 581.32 133.21 587.06 133.21C592.94 133.21 599.1 131.74 605.54 128.8C611.98 125.86 617.51 122.15 622.13 117.67L631.58 127.12C625.56 135.38 617.23 142.38 606.59 148.12C595.95 153.86 584.89 156.73 573.41 156.73Z" stroke="#F9F7FD" stroke-width="8" mask="url(#path-1-outside-1_115_1289)"/>
<path d="M676.713 150.01C668.453 153.65 658.373 155.47 646.473 155.47C642.413 155.47 638.773 155.12 635.553 154.42C635.553 145.18 639.473 124.39 647.313 92.0499C655.293 59.5699 659.283 39.1299 659.283 30.7299C659.283 27.3699 656.763 22.8899 651.723 17.2899L649.413 14.5599L650.043 9.9399C669.083 6.5799 690.223 4.8999 713.463 4.8999C727.463 4.8999 738.523 7.6299 746.643 13.0899C754.763 18.4099 758.823 26.2499 758.823 36.6099C758.823 46.8299 756.023 56.2099 750.423 64.7499C744.823 73.1499 736.843 79.7299 726.483 84.4899C731.103 100.17 735.513 112.42 739.713 121.24C743.913 130.06 747.343 134.47 750.003 134.47C752.243 134.47 755.743 133.63 760.503 131.95L763.023 131.11L768.063 142.45C755.743 151.83 742.723 156.52 729.003 156.52C715.423 156.52 706.533 149.66 702.333 135.94C698.693 123.9 695.753 108.99 693.513 91.2099H686.163C679.863 120.61 676.713 140.21 676.713 150.01ZM694.773 72.9399C699.253 72.9399 703.103 71.5399 706.323 68.7399C709.683 65.9399 712.203 62.2999 713.883 57.8199C716.963 48.9999 718.503 40.4599 718.503 32.1999C718.503 23.9399 714.793 19.8099 707.373 19.8099C705.133 19.8099 702.893 20.0199 700.653 20.4399C700.513 24.7799 697.083 42.1399 690.363 72.5199C691.343 72.7999 692.813 72.9399 694.773 72.9399Z" stroke="#F9F7FD" stroke-width="8" mask="url(#path-1-outside-1_115_1289)"/>
<path d="M858.86 115.57C858.86 127.19 853.26 136.92 842.06 144.76C831 152.6 818.12 156.52 803.42 156.52C791.94 156.52 782.21 154.07 774.23 149.17C766.39 144.27 762.47 139.58 762.47 135.1C764.71 129.64 768.98 123.76 775.28 117.46C781.58 111.16 787.39 107.87 792.71 107.59C796.21 109.13 799.43 112.98 802.37 119.14C805.45 125.16 807.9 132.16 809.72 140.14C817.28 139.86 821.06 135.59 821.06 127.33C821.06 121.87 818.96 115.22 814.76 107.38C810.7 99.3999 806.22 91.9799 801.32 85.1199C796.42 78.2599 791.87 70.6299 787.67 62.2299C783.61 53.8299 781.58 46.4799 781.58 40.1799C781.58 29.8199 786.34 21.3499 795.86 14.7699C805.38 8.1899 815.95 4.8999 827.57 4.8999C839.33 4.8999 848.43 7.4199 854.87 12.4599C861.45 17.4999 864.74 23.3099 864.74 29.8899C864.74 35.3499 863.62 39.7599 861.38 43.1199C859.14 46.3399 857.32 48.8599 855.92 50.6799C854.66 52.3599 852.91 54.1799 850.67 56.1399C846.47 59.7799 843.25 62.4399 841.01 64.1199L837.86 66.4299C846.12 76.6499 852.35 88.5499 856.55 102.13C858.09 107.03 858.86 111.51 858.86 115.57ZM847.94 31.3599C847.94 24.7799 843.74 21.4899 835.34 21.4899C830.44 21.4899 826.45 22.5399 823.37 24.6399C820.43 26.7399 818.96 29.3999 818.96 32.6199C818.96 35.6999 820.22 39.4799 822.74 43.9599C825.4 48.4399 827.5 51.5899 829.04 53.4099C832.4 51.7299 836.39 48.6499 841.01 44.1699C845.63 39.6899 847.94 35.4199 847.94 31.3599Z" stroke="#F9F7FD" stroke-width="8" mask="url(#path-1-outside-1_115_1289)"/>
<defs>
<linearGradient id="paint0_linear_115_1289" x1="513" y1="177" x2="149" y2="68" gradientUnits="userSpaceOnUse">
<stop stop-color="#2E1551"/>
<stop offset="1" stop-color="#6831B7"/>
</linearGradient>
<linearGradient id="paint1_linear_115_1289" x1="513" y1="177" x2="149" y2="68" gradientUnits="userSpaceOnUse">
<stop stop-color="#2E1551"/>
<stop offset="1" stop-color="#6831B7"/>
</linearGradient>
<linearGradient id="paint2_linear_115_1289" x1="513" y1="177" x2="149" y2="68" gradientUnits="userSpaceOnUse">
<stop stop-color="#2E1551"/>
<stop offset="1" stop-color="#6831B7"/>
</linearGradient>
<linearGradient id="paint3_linear_115_1289" x1="513" y1="177" x2="149" y2="68" gradientUnits="userSpaceOnUse">
<stop stop-color="#2E1551"/>
<stop offset="1" stop-color="#6831B7"/>
</linearGradient>
<linearGradient id="paint4_linear_115_1289" x1="513" y1="177" x2="149" y2="68" gradientUnits="userSpaceOnUse">
<stop stop-color="#2E1551"/>
<stop offset="1" stop-color="#6831B7"/>
</linearGradient>
<linearGradient id="paint5_linear_115_1289" x1="513" y1="177" x2="149" y2="68" gradientUnits="userSpaceOnUse">
<stop stop-color="#2E1551"/>
<stop offset="1" stop-color="#6831B7"/>
</linearGradient>
<linearGradient id="paint6_linear_115_1289" x1="513" y1="177" x2="149" y2="68" gradientUnits="userSpaceOnUse">
<stop stop-color="#2E1551"/>
<stop offset="1" stop-color="#6831B7"/>
</linearGradient>
</defs>
</svg>
