<svg width="66" height="66" viewBox="0 0 66 66" fill="none" xmlns="http://www.w3.org/2000/svg">
<path d="M56.375 57.7502H17.875C14.85 57.7502 12.375 55.2752 12.375 52.2502V24.7502C12.375 21.7252 14.85 19.2502 17.875 19.2502H56.375C59.4 19.2502 61.875 21.7252 61.875 24.7502V52.2502C61.875 55.2752 59.4 57.7502 56.375 57.7502Z" fill="#9891A1"/>
<path d="M48.125 49.5002H9.625C6.6 49.5002 4.125 47.0252 4.125 44.0002V16.5002C4.125 13.4752 6.6 11.0002 9.625 11.0002H48.125C51.15 11.0002 53.625 13.4752 53.625 16.5002V44.0002C53.625 47.0252 51.15 49.5002 48.125 49.5002Z" fill="#B9B5C0"/>
<path d="M41.25 26.1248C43.5282 26.1248 45.375 24.278 45.375 21.9998C45.375 19.7217 43.5282 17.8748 41.25 17.8748C38.9718 17.8748 37.125 19.7217 37.125 21.9998C37.125 24.278 38.9718 26.1248 41.25 26.1248Z" fill="white"/>
<path d="M23.375 24.6123L11 42.6248H35.75L23.375 24.6123Z" fill="black"/>
<path d="M38.5 32.3123L30.25 42.6248H46.75L38.5 32.3123Z" fill="#1E1E1E"/>
</svg>
