<svg width="85" height="90" viewBox="0 0 85 90" fill="none" xmlns="http://www.w3.org/2000/svg">
<path d="M9.6838 76.1754C9.73483 76.1754 9.76122 76.2106 9.76122 76.2809C9.76122 76.3513 9.73483 76.4006 9.6838 76.4287C9.56064 76.4762 9.43749 76.5185 9.31081 76.5554C9.18413 76.5888 9.06625 76.6363 8.95893 76.6962C8.71437 76.8281 8.59297 77.0445 8.59297 77.3436V79.5253C8.59297 79.6238 8.35545 79.7558 7.88217 79.9194C7.4124 80.0848 7.03061 80.2044 6.73503 80.2783C5.35565 80.6196 4.12054 80.5845 3.03323 80.1728C1.78404 79.6942 0.902578 78.8391 0.387071 77.604C0.128437 76.99 0 76.3777 0 75.7672C0 75.1584 0.0580605 74.6447 0.175941 74.2259C0.541899 72.9592 1.31076 71.9844 2.48429 71.2983C3.24787 70.8531 4.05017 70.6297 4.89117 70.6297C5.73568 70.6297 6.63122 70.7986 7.57955 71.1364C7.75197 71.198 7.8505 71.2279 7.87513 71.2279H7.95254L8.21997 71.1646H8.38888C8.4399 71.1646 8.46629 71.1892 8.46629 71.2349V73.4659C8.46629 73.5556 8.41703 73.5996 8.3185 73.5996H8.29035C8.2059 73.5908 8.14608 73.4764 8.11441 73.2547C8.10385 73.209 8.09681 73.1756 8.0933 73.1562C7.6464 71.7592 6.70336 71.059 5.26416 71.059C4.1135 71.059 3.19509 71.4953 2.5054 72.368C1.81923 73.2371 1.47791 74.2734 1.47791 75.4786C1.47791 76.6803 1.82275 77.743 2.51244 78.6667C3.20213 79.5869 4.15221 80.0461 5.36269 80.0461C5.982 80.0461 6.49223 79.9511 6.89689 79.7575C7.05172 79.6836 7.17136 79.5869 7.25581 79.469V77.6322C7.25581 77.2152 7.13617 76.9108 6.89689 76.7173C6.66113 76.5255 6.22832 76.4287 5.59493 76.4287C5.54743 76.4287 5.52455 76.3865 5.52455 76.302C5.52455 76.2176 5.54743 76.1754 5.59493 76.1754H9.6838Z" fill="white"/>
<path d="M18.6837 79.7576C18.2931 79.9969 17.8691 80.1851 17.4098 80.3206C16.9489 80.4508 16.5407 80.5176 16.1853 80.5176C15.4534 80.5176 14.7531 80.398 14.0881 80.1587C13.1732 79.8315 12.4377 79.3424 11.8853 78.6949C11.1815 77.8644 10.8296 76.8158 10.8296 75.5491C10.8296 74.6342 11.0636 73.8002 11.5334 73.0437C12.0014 72.2889 12.6489 71.6924 13.4758 71.2561C14.3062 70.8198 15.1965 70.6016 16.1501 70.6016C17.1072 70.6016 17.9623 70.8162 18.7188 71.242C19.4736 71.6643 20.0789 72.2466 20.5346 72.9874C20.9885 73.7298 21.2172 74.5339 21.2172 75.4013C21.2172 76.2651 20.992 77.0868 20.5416 77.8644C20.0912 78.6439 19.4719 79.2755 18.6837 79.7576ZM12.2372 75.3309C12.2372 76.0734 12.4008 76.8088 12.7298 77.5407C13.0571 78.2726 13.5268 78.8691 14.1373 79.3283C14.7514 79.7892 15.4604 80.018 16.2627 80.018C17.4063 80.018 18.2983 79.5816 18.937 78.709C19.5141 77.9172 19.8026 76.9056 19.8026 75.6757C19.8026 74.4477 19.4508 73.3867 18.747 72.4947C18.4039 72.0637 17.9817 71.7188 17.4802 71.4602C16.9823 71.198 16.4809 71.0661 15.9742 71.0661C15.4675 71.0661 15.0522 71.1224 14.7285 71.235C14.4048 71.3441 14.1092 71.4954 13.8418 71.6924C13.5778 71.886 13.3456 72.1147 13.145 72.3821C12.948 72.6495 12.7808 72.9416 12.6454 73.2548C12.3726 73.8987 12.2372 74.5902 12.2372 75.3309Z" fill="white"/>
<path d="M22.2781 80.3346C22.2394 80.3346 22.2218 80.317 22.2218 80.2783V80.1235C22.2218 80.0865 22.2394 80.0672 22.2781 80.0672H22.44C22.8235 80.0672 23.1578 79.988 23.4393 79.8279C23.5555 79.7575 23.6522 79.652 23.7279 79.5112C23.807 79.3705 23.8475 79.2139 23.8475 79.0397V71.9457C23.8475 71.6695 23.6663 71.4584 23.3056 71.3124C23.0558 71.205 22.7919 71.1505 22.5104 71.1505H22.3626C22.3239 71.1505 22.3063 71.1329 22.3063 71.0942V70.9323C22.3063 70.9007 22.3239 70.8831 22.3626 70.8831H26.9019C26.9388 70.8831 26.9582 70.9007 26.9582 70.9323V71.0942C26.9582 71.1329 26.9388 71.1505 26.9019 71.1505H26.6133C26.1523 71.1505 25.7477 71.2173 25.3958 71.3475C25.292 71.381 25.2234 71.439 25.1917 71.5235C25.1636 71.6044 25.1495 71.7452 25.1495 71.9457V79.3845C25.1583 79.4602 25.1987 79.5306 25.2691 79.5957C25.343 79.6625 25.4257 79.6942 25.5154 79.6942H28.1616C28.5592 79.6942 28.9516 79.4602 29.3369 78.9904C29.4389 78.869 29.5656 78.7054 29.7169 78.4978C29.8717 78.2867 29.965 78.167 29.9984 78.1389C30.1427 78.0368 30.2166 78.0386 30.2166 78.1459C30.2166 78.1741 30.2095 78.2022 30.1955 78.2304L29.1821 80.215C29.1398 80.2959 29.0923 80.3346 29.0413 80.3346H22.2781Z" fill="white"/>
<path d="M30.5614 70.9184C30.5614 70.8814 30.5772 70.8621 30.6106 70.8621H30.7584L32.9119 70.8128C33.1688 70.804 33.4503 70.7987 33.7564 70.7987H34.5939C35.3716 70.7987 35.9557 70.8304 36.3463 70.8902C36.7404 70.9465 37.124 71.0151 37.5005 71.0943C37.8805 71.17 38.2834 71.3477 38.711 71.6292C39.1367 71.9072 39.5062 72.2397 39.8159 72.6285C40.4774 73.473 40.8082 74.3844 40.8082 75.3591C40.8082 76.3303 40.5548 77.203 40.0481 77.9771C39.3162 79.0996 38.2535 79.8316 36.8601 80.1729C36.4184 80.282 35.9663 80.3347 35.5018 80.3347H30.6106C30.5772 80.3347 30.5614 80.3172 30.5614 80.2784V80.0955C30.5614 80.0585 30.5772 80.0392 30.6106 80.0392H30.7584C31.5748 80.0392 31.983 79.7823 31.983 79.265V71.9107C31.983 71.6626 31.8862 71.4744 31.6944 71.3477C31.5009 71.221 31.2827 71.1577 31.0399 71.1577H30.6106C30.5772 71.1577 30.5614 71.1401 30.5614 71.1014V70.9184ZM33.4538 71.1154C33.3447 71.1154 33.292 71.177 33.292 71.2984V79.4973C33.292 79.8263 33.6016 79.9969 34.2209 80.011C34.4039 80.0163 34.5957 80.0181 34.798 80.0181C36.2231 80.0181 37.3456 79.6204 38.162 78.8217C38.9784 78.0194 39.3866 76.9549 39.3866 75.6266C39.3866 74.2947 39.0083 73.2109 38.2535 72.3752C37.5022 71.5359 36.5117 71.1154 35.2836 71.1154H33.4538Z" fill="white"/>
<path d="M41.8695 80.3346C41.8308 80.3346 41.8132 80.317 41.8132 80.2783V80.1235C41.8132 80.0865 41.836 80.0672 41.8835 80.0672H42.0384C42.2812 80.0672 42.4483 80.0443 42.538 79.9968C42.8706 79.8385 43.0377 79.3969 43.0377 78.6737V71.7065C43.0377 71.4074 42.7457 71.2279 42.1651 71.1716C42.0331 71.1575 41.9416 71.1505 41.8906 71.1505C41.8378 71.1505 41.8132 71.1329 41.8132 71.0942V70.9323C41.8132 70.9007 41.8308 70.8831 41.8695 70.8831H44.3186L50.6806 77.9137C50.7035 77.9383 50.7193 77.9559 50.7299 77.97C50.7387 77.9805 50.7527 77.984 50.7721 77.984C50.795 77.984 50.8073 77.9629 50.8073 77.9207V73.304C50.8073 72.4137 50.7316 71.8314 50.5821 71.5587C50.436 71.2877 50.1405 71.1505 49.6953 71.1505H49.3505C49.3118 71.1505 49.2942 71.1329 49.2942 71.0942V70.9323C49.2942 70.9007 49.3118 70.8831 49.3505 70.8831H52.8341C52.8711 70.8831 52.8904 70.9007 52.8904 70.9323V71.0942C52.8904 71.1329 52.8236 71.1505 52.6934 71.1505C52.5614 71.1505 52.3433 71.2279 52.0389 71.3827C51.738 71.534 51.5885 71.7188 51.5885 71.9387V80.1376C51.5885 80.2361 51.5744 80.3065 51.5462 80.3487C51.5216 80.3909 51.4583 80.412 51.3562 80.412C51.2577 80.412 51.182 80.3909 51.131 80.3487C51.0835 80.3117 51.0272 80.2554 50.9621 80.1798L44.0441 72.5158C44.0019 72.4736 43.9614 72.4525 43.9245 72.4525C43.8998 72.4525 43.8893 72.4736 43.8893 72.5158V79.2086C43.8893 79.6168 44.213 79.8842 44.8605 80.0109C45.0382 80.0496 45.1736 80.0672 45.2687 80.0672C45.3619 80.0672 45.4094 80.0865 45.4094 80.1235V80.2783C45.4094 80.317 45.3901 80.3346 45.3531 80.3346H41.8695Z" fill="white"/>
<path d="M56.9712 71.1505C56.22 71.1505 55.8452 71.4513 55.8452 72.0513V76.851C55.8452 77.7342 56.1355 78.4556 56.7179 79.0186C57.3038 79.5781 58.0568 79.8561 58.977 79.8561C59.9288 79.8561 60.71 79.6009 61.3205 79.089C61.9293 78.5787 62.2354 77.8697 62.2354 76.9636V72.6988C62.2354 72.273 62.1949 71.9774 62.1157 71.812C61.9222 71.3722 61.4912 71.1505 60.8208 71.1505C60.7821 71.1505 60.7645 71.1329 60.7645 71.0942V70.9323C60.7645 70.9007 60.7821 70.8831 60.8208 70.8831H64.1144C64.1514 70.8831 64.1707 70.9007 64.1707 70.9323V71.0942C64.1707 71.1329 64.1215 71.1505 64.023 71.1505C63.4353 71.1505 63.0799 71.3792 62.9532 71.8331C62.9286 71.9088 62.918 71.9809 62.918 72.0513V76.4428C62.918 78.4045 62.1668 79.666 60.666 80.2291C60.1593 80.4208 59.6543 80.5176 59.1529 80.5176C57.3601 80.5176 56.0387 80.0496 55.1907 79.1101C54.7544 78.628 54.5362 78.0298 54.5362 77.3155V71.9528C54.5362 71.5727 54.3057 71.3247 53.8465 71.2068C53.7093 71.1698 53.5949 71.1505 53.5017 71.1505C53.4067 71.1505 53.3609 71.1329 53.3609 71.0942V70.9323C53.3609 70.9007 53.3768 70.8831 53.4102 70.8831H57.0416C57.0786 70.8831 57.0979 70.9007 57.0979 70.9323V71.0942C57.0979 71.1329 57.0557 71.1505 56.9712 71.1505Z" fill="white"/>
<path d="M64.3777 80.2783V80.0953C64.3777 80.0584 64.3935 80.039 64.4269 80.039H64.5747C64.7612 80.025 64.9548 80.0179 65.1518 80.0179C65.3489 80.0144 65.5266 79.9898 65.6867 79.9475C66.0562 79.8402 66.2427 79.571 66.2427 79.1382V72.0724C66.2427 71.6326 65.9788 71.3511 65.4544 71.2279C65.3084 71.1998 65.1589 71.1751 65.004 71.1505H64.8633C64.8299 71.1505 64.814 71.1329 64.814 71.0942V70.9323C64.814 70.9007 64.8299 70.8831 64.8633 70.8831H71.2394C71.3186 70.8831 71.3766 70.8971 71.4153 70.9253C71.4523 70.9534 71.4734 71.0168 71.4787 71.1153L71.6053 73.0577C71.6053 73.1052 71.5702 73.1281 71.4998 73.1281C71.4329 73.1281 71.3837 73.107 71.352 73.0647C71.3274 73.0225 71.2957 72.8606 71.2535 72.5791C71.2112 72.2976 71.1338 72.0636 71.0212 71.8754C70.9086 71.6889 70.7116 71.5692 70.4301 71.5164H67.6361C67.5745 71.5164 67.5446 71.5481 67.5446 71.6079V75.0705C67.5446 75.118 67.5675 75.1408 67.615 75.1408H69.9304C70.5303 75.1408 70.8312 74.7925 70.8312 74.0922C70.8312 74.0553 70.8488 74.0359 70.8875 74.0359H71.0494C71.081 74.0359 71.0986 74.0553 71.0986 74.0922V76.9636C71.0986 76.997 71.081 77.0128 71.0494 77.0128H70.8875C70.8488 77.0128 70.8312 76.997 70.8312 76.9636C70.8312 76.302 70.6377 75.9203 70.2541 75.8164C70.145 75.7883 70.0324 75.7742 69.9163 75.7742H67.615C67.5675 75.7742 67.5446 75.7989 67.5446 75.8446V79.1101C67.5446 79.4444 67.6995 79.6344 68.0091 79.6801C68.0971 79.6907 68.1921 79.6942 68.2906 79.6942H70.5216C70.9808 79.6942 71.3397 79.4936 71.5983 79.089C71.7813 78.7987 71.8904 78.4661 71.9291 78.0896C71.9432 77.9629 72.01 77.8996 72.1332 77.8996C72.1842 77.8996 72.2106 77.9313 72.2106 77.9911L71.9924 80.2431C71.9643 80.3047 71.9326 80.3346 71.9009 80.3346H64.4269C64.3935 80.3346 64.3777 80.317 64.3777 80.2783Z" fill="white"/>
<path d="M73.124 80.3346C73.0853 80.3346 73.0677 80.317 73.0677 80.2783V80.1235C73.0677 80.0865 73.0853 80.0672 73.124 80.0672H73.2859C73.6694 80.0672 74.0037 79.988 74.2852 79.8279C74.4014 79.7575 74.4981 79.652 74.5738 79.5112C74.6529 79.3705 74.6934 79.2139 74.6934 79.0397V71.9457C74.6934 71.6695 74.5122 71.4584 74.1515 71.3124C73.9017 71.205 73.6378 71.1505 73.3563 71.1505H73.2085C73.1698 71.1505 73.1522 71.1329 73.1522 71.0942V70.9323C73.1522 70.9007 73.1698 70.8831 73.2085 70.8831H77.7478C77.7847 70.8831 77.8041 70.9007 77.8041 70.9323V71.0942C77.8041 71.1329 77.7847 71.1505 77.7478 71.1505H77.4592C76.9982 71.1505 76.5936 71.2173 76.2417 71.3475C76.1379 71.381 76.0693 71.439 76.0376 71.5235C76.0095 71.6044 75.9954 71.7452 75.9954 71.9457V79.3845C76.0042 79.4602 76.0446 79.5306 76.115 79.5957C76.1889 79.6625 76.2716 79.6942 76.3613 79.6942H79.0075C79.4051 79.6942 79.7975 79.4602 80.1828 78.9904C80.2848 78.869 80.4115 78.7054 80.5628 78.4978C80.7176 78.2867 80.8109 78.167 80.8443 78.1389C80.9886 78.0368 81.0625 78.0386 81.0625 78.1459C81.0625 78.1741 81.0554 78.2022 81.0414 78.2304L80.028 80.215C79.9857 80.2959 79.9382 80.3346 79.8872 80.3346H73.124Z" fill="white"/>
<path d="M24.9532 86.1719H23.8342V89.5359H23.3697V86.1719H22.2578V85.7497H24.9532V86.1719Z" fill="white"/>
<path d="M30.0146 88.431H28.4733L28.0722 89.5359H27.6006L29.0223 85.7497H29.4656L30.9013 89.5359H30.4227L30.0146 88.431ZM29.8808 88.058L29.2475 86.3408H29.2263L28.607 88.058H29.8808Z" fill="white"/>
<path d="M35.9271 89.1137V89.5359H33.6962V85.7497H34.1677L34.1607 89.1137H35.9271Z" fill="white"/>
<path d="M39.2357 86.1719V87.4176H40.8754V87.7906H39.2357V89.1137H41.0936V89.5359H38.7641V85.7497H41.0936V86.1719H39.2357Z" fill="white"/>
<path d="M44.048 85.7497H44.5688L46.6027 88.7899H46.6238V85.7497H47.0813V89.5359H46.5534L44.5266 86.5379H44.5055V89.5359H44.048V85.7497Z" fill="white"/>
<path d="M52.6336 86.1719H51.5146V89.5359H51.0501V86.1719H49.9382V85.7497H52.6336V86.1719Z" fill="white"/>
<path d="M56.7381 89.5783C56.446 89.5783 56.1979 89.5202 55.9921 89.4024C55.7845 89.281 55.6279 89.1244 55.5206 88.9308C55.4167 88.7391 55.3657 88.5402 55.3657 88.3326V88.3045H55.8795V88.3326C55.8795 88.4558 55.9076 88.5789 55.9639 88.7056C56.0237 88.8323 56.1205 88.9379 56.2525 89.0223C56.3827 89.1068 56.5498 89.149 56.7521 89.149C56.9914 89.149 57.1885 89.0892 57.3433 88.966C57.4981 88.8446 57.5755 88.681 57.5755 88.4734C57.5755 88.301 57.5157 88.162 57.3996 88.0582C57.287 87.9561 57.1427 87.8857 56.9703 87.847L56.4143 87.7415C55.7809 87.6007 55.4642 87.2682 55.4642 86.7421C55.4642 86.5275 55.5153 86.3392 55.6191 86.1791C55.7211 86.0155 55.8672 85.8888 56.0554 85.7991C56.2419 85.7111 56.4583 85.6654 56.7029 85.6654C56.9791 85.6654 57.2166 85.7217 57.4137 85.8343C57.6143 85.9469 57.7656 86.0929 57.8641 86.2706C57.9661 86.4501 58.0189 86.6348 58.0189 86.8266V86.8477H57.5052V86.8336C57.5052 86.721 57.477 86.6084 57.4207 86.4958C57.3679 86.3832 57.2817 86.2882 57.1603 86.2073C57.0424 86.1228 56.8859 86.0806 56.6888 86.0806C56.4583 86.0806 56.2753 86.1439 56.1399 86.2706C56.0079 86.3938 55.9428 86.5486 55.9428 86.7351C55.9428 86.8952 55.9938 87.0271 56.0976 87.1292C56.1997 87.2277 56.344 87.2963 56.5269 87.3333L57.0196 87.4318C57.7181 87.5726 58.0682 87.9139 58.0682 88.4523C58.0682 88.674 58.0119 88.8675 57.8993 89.0364C57.7902 89.2053 57.6354 89.339 57.4348 89.4375C57.2325 89.5325 57.0002 89.5783 56.7381 89.5783Z" fill="white"/>
<path d="M40.6422 21.7815C39.6323 22.0824 38.9391 22.6243 38.5591 23.4072C38.1826 24.1866 37.9961 25.054 37.9961 26.0111V44.3864C37.5914 43.7812 37.0741 43.2287 36.4407 42.7256C35.8109 42.2188 35.1194 41.9655 34.3646 41.9655C33.5571 41.9655 32.7126 42.0922 31.8311 42.3455C30.9479 42.5989 30.0523 42.8786 29.1427 43.183C28.2366 43.4839 27.3164 43.7601 26.384 44.0134C25.455 44.2615 24.4855 44.3864 23.4774 44.3864C20.5022 44.3864 17.8561 43.7214 15.5389 42.3878C13.22 41.0506 11.2548 39.3105 9.64139 37.1658C8.02625 35.0229 6.80522 32.616 5.97477 29.9452C5.14433 27.2709 4.72911 24.6001 4.72911 21.9293C4.72911 19.1565 5.21823 16.5103 6.19998 13.9908C7.18525 11.4714 8.54527 9.26682 10.2818 7.37545C12.0219 5.48585 14.0892 3.97275 16.482 2.83617C18.8783 1.70135 21.5139 1.13306 24.3853 1.13306C24.8392 1.13306 25.2931 1.15945 25.7435 1.21048C26.1975 1.26326 26.6531 1.31428 27.1088 1.3653L28.8471 1.51309C29.3011 1.56588 29.755 1.6169 30.2054 1.66792C30.6593 1.71543 31.115 1.7383 31.5707 1.7383C32.2745 1.7383 32.9923 1.63801 33.7242 1.43568C34.4561 1.23511 34.9716 0.756547 35.2725 0L36.9334 9.14894C36.534 7.99125 35.9428 6.95847 35.1599 6.05238C34.3752 5.14276 33.4797 4.3739 32.4715 3.74403C31.4669 3.11592 30.3708 2.62504 29.1849 2.27316C28.0026 1.91776 26.8308 1.7383 25.6731 1.7383C22.5432 1.7383 19.9586 2.34354 17.9177 3.55401C15.8767 4.76449 14.2616 6.35324 13.0758 8.3185C11.8934 10.2855 11.063 12.5305 10.5844 15.0535C10.1059 17.573 9.86659 20.1681 9.86659 22.8372C9.86659 25.0575 10.1428 27.3764 10.697 29.7974C11.2495 32.2148 12.1063 34.4422 13.2658 36.4832C14.4287 38.5241 15.9559 40.2026 17.8473 41.5151C19.7369 42.8241 21.9925 43.4786 24.6105 43.4786C25.6186 43.4786 26.6514 43.315 27.707 42.986C28.7662 42.6587 29.7268 42.1801 30.5854 41.5503C31.444 40.9222 32.1355 40.1551 32.6615 39.249C33.1911 38.3393 33.4568 37.3312 33.4568 36.2228V26.166C33.4568 25.1578 33.2545 24.2377 32.8515 23.4072C32.4469 22.5733 31.7414 22.0314 30.7332 21.7815H40.6422Z" fill="white"/>
<path d="M84.9999 62.4288C84.3472 62.5308 83.705 62.6065 83.0716 62.654C82.4417 62.705 81.7995 62.7314 81.1433 62.7314C77.211 62.7314 73.657 61.8482 70.4812 60.0852C67.3037 58.3205 64.3673 56.014 61.6701 53.1672C58.9764 50.3187 56.4939 47.1061 54.2243 43.5257C51.9581 39.947 49.7642 36.3314 47.6441 32.6806C45.5275 29.0263 43.4496 25.4987 41.4087 22.096C39.3678 18.6898 37.2371 15.7533 35.0185 13.2849V41.6396C35.0185 43.0524 35.4074 44.2259 36.1868 45.1584C36.9697 46.0874 38.0183 46.7542 39.3326 47.1571H30.3315C31.644 46.7542 32.6644 46.0733 33.3928 45.1162C34.1247 44.159 34.4907 43.0013 34.4907 41.6396V12.6796C32.3231 10.2587 29.8142 8.28112 26.9675 6.74691C24.1207 5.20919 21.033 4.43856 17.7059 4.43856C15.285 4.43856 12.9414 4.74118 10.6753 5.34642L10.4501 4.74118C11.7591 4.33828 13.0716 4.06205 14.3841 3.91074C15.6932 3.75591 17.0022 3.6785 18.3112 3.6785C21.8405 3.6785 25.0919 4.27318 28.0653 5.45902C31.0387 6.64135 33.7869 8.24241 36.3064 10.2587C38.8259 12.2767 41.1571 14.5974 43.3018 17.2189C45.4448 19.8369 47.4224 22.5957 49.2346 25.4952C51.0503 28.3947 52.7393 31.3329 54.3017 34.3063C55.864 37.2762 57.3507 40.0983 58.7635 42.7726V15.551C58.7635 12.7272 57.3507 10.9114 54.5269 10.1039H63.6055C62.2912 10.5085 61.269 11.1771 60.537 12.1096C59.8086 13.0438 59.4462 14.191 59.4462 15.551V43.8283C60.5529 45.8463 61.8126 47.9119 63.2254 50.0284C64.6365 52.1485 66.2111 54.0909 67.9477 55.8556C69.6877 57.6185 71.6161 59.0665 73.7326 60.1978C75.8527 61.3327 78.198 61.9009 80.7703 61.9009H81.9737C82.4804 61.9009 82.9731 61.9009 83.4516 61.9009C83.9302 61.9009 84.3964 61.8517 84.8521 61.7532L84.9999 62.4288Z" fill="white"/>
</svg>
